#N canvas 882 65 612 435 10;
#X obj 199 91 r audio_on_off;
#X obj 200 119 tgl 15 0 empty empty empty 17 7 0 10 -262144 -1 -1 0
1;
#X msg 200 148 \; pd dsp \$1 \;;
#X obj 260 226 netreceive 3000;
#X obj 258 258 route 0 1;
#X obj 256 288 s audio_on_off;
#X obj 39 298 dac~;
#X obj 37 195 osc~ 440;
#X floatatom 37 156 5 0 0 0 - - -, f 5;
#X obj 39 261 *~ 0;
#X msg 66 233 0;
#X msg 104 234 1;
#X obj 288 320 s pitch;
#X obj 63 116 r pitch;
#X connect 0 0 1 0;
#X connect 1 0 2 0;
#X connect 3 0 4 0;
#X connect 4 0 5 0;
#X connect 4 1 12 0;
#X connect 7 0 9 0;
#X connect 8 0 7 0;
#X connect 9 0 6 0;
#X connect 9 0 6 1;
#X connect 10 0 9 1;
#X connect 11 0 9 1;
#X connect 13 0 8 0;
