#N canvas 461 84 1158 790 10;
#X obj 335 627 *~;
#X obj 380 628 *~;
#N canvas 0 22 450 278 (subpatch) 0;
#X array channel1 114048 float 2;
#X coords 0 1 114048 -1 200 140 1 0 0;
#X restore 687 229 graph;
#N canvas 0 22 450 278 (subpatch) 0;
#X array channel0 4e+06 float 2;
#X coords 0 1 4e+06 -1 200 140 1 0 0;
#X restore 688 73 graph;
#X obj 381 126 soundfiler;
#X floatatom 401 236 12 0 0 0 - - -, f 12;
#X obj 383 208 expr 44100 / $f1;
#X obj 415 181 s sampleSize;
#X floatatom 415 157 12 0 0 0 - - -, f 12;
#X obj 383 307 phasor~;
#X obj 383 368 *~;
#X obj 398 337 r sampleSize;
#X text 275 562 volume;
#X obj 335 664 dac~ 1 2;
#X obj 443 416 snapshot~;
#X obj 443 392 metro 50;
#X obj 442 370 tgl 15 0 empty empty empty 17 7 0 10 -262144 -1 -1 1
1;
#X floatatom 443 439 12 0 0 0 - - -, f 12;
#X obj 443 465 /;
#X obj 475 460 r sampleSize;
#X floatatom 443 489 5 0 0 0 - - -, f 5;
#X obj 690 378 hsl 195 15 0 1 0 0 empty empty empty -2 -8 0 10 -262144
-1 -1 13659 1;
#X floatatom 216 300 5 0 1 0 - - -, f 5;
#X msg 426 277 0;
#X msg 202 378 0;
#X text 166 377 pause;
#X obj 177 352 t b b;
#X obj 181 328 bng 15 250 50 0 empty empty empty 17 7 0 10 -262144
-1 -1;
#X text 148 328 stop;
#X text 82 290 change playbackspeed;
#X text 41 651 https://youtu.be/boX0v54SqtU tutorial;
#X obj 673 484 hradio 15 1 0 2 empty empty empty 0 -8 0 10 -262144
-1 -1 0;
#X msg 673 509 set channel\$1;
#X obj 384 565 tabread4~ channel0;
#X obj 350 23 loadbang;
#X msg 577 193 114048;
#X msg 563 169 4e+06;
#X msg 233 239 0.386;
#X msg 189 229 0.011;
#X obj 544 226 sel 0 1;
#X obj 531 270 bng 15 250 50 0 empty empty empty 17 7 0 10 -262144
-1 -1;
#X obj 557 272 bng 15 250 50 0 empty empty empty 17 7 0 10 -262144
-1 -1;
#X msg 351 69 read -resize ../sounds/IndianaBat.wav channel0;
#X msg 388 98 read -resize ../sounds/veeryBird_normal.wav channel1
;
#X msg 242 68 \; pd dsp 1;
#X obj 943 498 route 0 1;
#X obj 945 466 netreceive 3333;
#X obj 865 550 s audioSwitcher;
#X obj 970 548 s playbackspeed;
#X obj 673 450 r audioSwitcher;
#X obj 210 198 r playbackspeed;
#X msg 321 563 1;
#X obj 321 535 loadbang;
#X connect 0 0 13 0;
#X connect 1 0 13 1;
#X connect 4 0 6 0;
#X connect 4 0 8 0;
#X connect 6 0 5 0;
#X connect 6 0 9 0;
#X connect 8 0 7 0;
#X connect 9 0 10 0;
#X connect 10 0 14 0;
#X connect 10 0 33 0;
#X connect 11 0 10 1;
#X connect 14 0 17 0;
#X connect 15 0 14 0;
#X connect 16 0 15 0;
#X connect 17 0 18 0;
#X connect 18 0 20 0;
#X connect 19 0 18 1;
#X connect 20 0 21 0;
#X connect 22 0 9 0;
#X connect 23 0 9 1;
#X connect 24 0 9 0;
#X connect 26 1 24 0;
#X connect 27 0 26 0;
#X connect 31 0 32 0;
#X connect 31 0 39 0;
#X connect 32 0 33 0;
#X connect 33 0 0 0;
#X connect 33 0 1 0;
#X connect 34 0 42 0;
#X connect 34 0 43 0;
#X connect 34 0 44 0;
#X connect 35 0 7 0;
#X connect 36 0 7 0;
#X connect 37 0 22 0;
#X connect 38 0 22 0;
#X connect 39 0 40 0;
#X connect 39 0 36 0;
#X connect 39 0 38 0;
#X connect 39 1 41 0;
#X connect 39 1 35 0;
#X connect 39 1 37 0;
#X connect 42 0 4 0;
#X connect 43 0 4 0;
#X connect 45 0 47 0;
#X connect 45 1 48 0;
#X connect 46 0 45 0;
#X connect 49 0 31 0;
#X connect 50 0 22 0;
#X connect 51 0 0 1;
#X connect 51 0 1 1;
#X connect 52 0 51 0;
