#N canvas 195 73 1299 852 10;
#X obj 316 684 *~;
#X obj 361 685 *~;
#N canvas 0 50 450 278 (subpatch) 0;
#X array channel3 240000 float 2;
#X coords 0 1 240000 -1 200 140 1 0 0;
#X restore 1064 59 graph;
#N canvas 0 50 450 278 (subpatch) 0;
#X array channel0 4e+06 float 2;
#X coords 0 1 4e+06 -1 200 140 1 0 0;
#X restore 857 59 graph;
#X obj 317 203 soundfiler;
#X obj 317 237 expr 44100 / $f1;
#X obj 511 392 s sampleSize;
#X obj 317 384 phasor~;
#X obj 317 445 *~;
#X obj 332 414 r sampleSize;
#X text 233 630 volume;
#X obj 316 721 dac~ 1 2;
#X obj 377 493 snapshot~;
#X obj 377 469 metro 50;
#X obj 376 447 tgl 15 0 empty empty empty 17 7 0 10 -262144 -1 -1 1
1;
#X floatatom 377 516 12 0 0 0 - - -, f 12;
#X obj 377 542 /;
#X obj 409 537 r sampleSize;
#X floatatom 377 566 5 0 0 0 - - -, f 5;
#X obj 958 527 hsl 195 15 0 1 0 0 empty empty empty -2 -8 0 10 -262144
-1 -1 0 1;
#X floatatom 266 348 5 0 1 0 - - -, f 5;
#X msg 360 354 0;
#X msg 213 470 0;
#X text 168 444 pause;
#X obj 179 419 t b b;
#X obj 183 395 bng 15 250 50 0 empty empty empty 17 7 0 10 -262144
-1 -1;
#X text 150 395 stop;
#X msg 450 587 set channel\$1;
#X obj 365 622 tabread4~ channel0;
#X obj 243 104 loadbang;
#X msg 511 311 114048;
#X msg 493 286 4e+06;
#X msg 16 282 0.386;
#X msg 16 263 0.011;
#X obj 498 247 bng 15 250 50 0 empty empty empty 17 7 0 10 -262144
-1 -1;
#X obj 516 247 bng 15 250 50 0 empty empty empty 17 7 0 10 -262144
-1 -1;
#X msg 36 28 \; pd dsp 1;
#X obj 774 581 netreceive 3333;
#X obj 699 756 s audioSwitcher;
#X obj 760 730 s playbackspeed;
#X obj 194 324 r playbackspeed;
#X msg 279 631 1;
#X obj 279 603 loadbang;
#X obj 862 683 s pause;
#X obj 107 428 r pause;
#X obj 154 471 bng 15 250 50 0 empty empty empty 17 7 0 10 -262144
-1 -1;
#X obj 772 613 route 0 1 2 3;
#X obj 816 706 s setVolume;
#X obj 151 604 r setVolume;
#X floatatom 187 630 5 0 0 0 - - -, f 5;
#X msg 357 46 read -resize bat.wav channel0;
#X msg 389 71 read -resize mouse.wav channel1;
#X msg 471 154 read -resize peacock.wav channel4;
#X msg 438 127 read -resize forestElephant.wav channel3;
#X msg 414 99 read -resize groundSquirrel.wav channel2;
#X text 14 805 https://youtu.be/boX0v54SqtU tutorial;
#N canvas 0 50 450 278 (subpatch) 0;
#X array channel2 362244 float 2;
#X coords 0 1 362244 -1 200 140 1 0 0;
#X restore 858 378 graph;
#N canvas 0 50 450 278 (subpatch) 0;
#X array channel5 114048 float 2;
#X coords 0 1 114048 -1 200 140 1 0 0;
#X restore 1066 377 graph;
#N canvas 0 50 450 278 (subpatch) 0;
#X array channel1 644322 float 2;
#X coords 0 1 644322 -1 200 140 1 0 0;
#X restore 857 220 graph;
#N canvas 0 50 450 278 (subpatch) 0;
#X array channel4 1.40751e+06 float 2;
#X coords 0 1 1.40751e+06 -1 200 140 1 0 0;
#X restore 1065 220 graph;
#X obj 496 213 sel 0 1 2 3 4 5;
#X obj 552 247 bng 15 250 50 0 empty empty empty 17 7 0 10 -262144
-1 -1;
#X obj 570 247 bng 15 250 50 0 empty empty empty 17 7 0 10 -262144
-1 -1;
#X obj 587 247 bng 15 250 50 0 empty empty empty 17 7 0 10 -262144
-1 -1;
#X obj 534 247 bng 15 250 50 0 empty empty empty 17 7 0 10 -262144
-1 -1;
#X msg 16 301 0.068;
#X msg 528 334 644322;
#X msg 578 306 1.40751e+06;
#X msg 16 339 0.031;
#X msg 571 279 240000;
#X msg 16 320 0.183;
#X text 163 348 playbackspeed;
#X text 759 561 OSC communication;
#X obj 670 462 hradio 15 1 0 6 empty empty empty 0 -8 0 10 -262144
-1 -1 4;
#X obj 670 428 r audioSwitcher;
#X msg 589 333 360383;
#X msg 16 358 0.122;
#X msg 494 180 read -resize whale.wav channel5;
#X connect 0 0 11 0;
#X connect 1 0 11 1;
#X connect 4 0 5 0;
#X connect 5 0 7 0;
#X connect 7 0 8 0;
#X connect 8 0 12 0;
#X connect 8 0 28 0;
#X connect 9 0 8 1;
#X connect 12 0 15 0;
#X connect 13 0 12 0;
#X connect 14 0 13 0;
#X connect 15 0 16 0;
#X connect 16 0 18 0;
#X connect 17 0 16 1;
#X connect 18 0 19 0;
#X connect 20 0 7 0;
#X connect 21 0 7 1;
#X connect 22 0 7 0;
#X connect 24 1 22 0;
#X connect 25 0 24 0;
#X connect 27 0 28 0;
#X connect 28 0 0 0;
#X connect 28 0 1 0;
#X connect 29 0 50 0;
#X connect 29 0 51 0;
#X connect 29 0 36 0;
#X connect 29 0 14 0;
#X connect 29 0 54 0;
#X connect 29 0 53 0;
#X connect 29 0 52 0;
#X connect 29 0 77 0;
#X connect 30 0 6 0;
#X connect 31 0 6 0;
#X connect 34 0 31 0;
#X connect 35 0 30 0;
#X connect 37 0 46 0;
#X connect 40 0 20 0;
#X connect 41 0 0 1;
#X connect 41 0 1 1;
#X connect 42 0 41 0;
#X connect 44 0 45 0;
#X connect 45 0 22 0;
#X connect 46 0 38 0;
#X connect 46 1 39 0;
#X connect 46 2 47 0;
#X connect 46 3 43 0;
#X connect 48 0 49 0;
#X connect 49 0 0 1;
#X connect 49 0 1 1;
#X connect 50 0 4 0;
#X connect 51 0 4 0;
#X connect 52 0 4 0;
#X connect 53 0 4 0;
#X connect 54 0 4 0;
#X connect 60 0 34 0;
#X connect 60 1 35 0;
#X connect 60 2 64 0;
#X connect 60 3 61 0;
#X connect 60 4 62 0;
#X connect 60 5 63 0;
#X connect 61 0 69 0;
#X connect 62 0 67 0;
#X connect 63 0 75 0;
#X connect 64 0 66 0;
#X connect 66 0 6 0;
#X connect 67 0 6 0;
#X connect 69 0 6 0;
#X connect 73 0 60 0;
#X connect 73 0 27 0;
#X connect 74 0 73 0;
#X connect 75 0 6 0;
#X connect 77 0 4 0;
